<svg xmlns="http://www.w3.org/2000/svg" width="960" height="540" viewBox="0 0 960 540"><defs><linearGradient id="sky" x2="0" y2="1"><stop stop-color="#75d7ff"/><stop offset="1" stop-color="#7967d8"/></linearGradient><filter id="glow"><feGaussianBlur stdDeviation="7" result="b"/><feMerge><feMergeNode in="b"/><feMergeNode in="SourceGraphic"/></feMerge></filter></defs><title>Beatline City gameplay</title><rect width="960" height="540" fill="#07131f"/><g opacity=".35"><circle cx="80" cy="110" r="55" fill="#ff5d7d"/><circle cx="190" cy="165" r="55" fill="#7f5af0"/><circle cx="300" cy="110" r="55" fill="#2ad5c8"/><circle cx="410" cy="165" r="55" fill="#ff5d7d"/><circle cx="520" cy="110" r="55" fill="#7f5af0"/><circle cx="630" cy="165" r="55" fill="#2ad5c8"/><circle cx="740" cy="110" r="55" fill="#ff5d7d"/><circle cx="850" cy="165" r="55" fill="#7f5af0"/></g><rect x="260" y="70" width="90" height="400" fill="#14283b" opacity=".8" stroke="#2ad5c8" stroke-width="2"/><rect x="260" y="432" width="90" height="8" fill="#fff"/><rect x="390" y="70" width="90" height="400" fill="#14283b" opacity=".8" stroke="#2ad5c8" stroke-width="2"/><rect x="390" y="432" width="90" height="8" fill="#fff"/><rect x="520" y="70" width="90" height="400" fill="#14283b" opacity=".8" stroke="#2ad5c8" stroke-width="2"/><rect x="520" y="432" width="90" height="8" fill="#fff"/><rect x="650" y="70" width="90" height="400" fill="#14283b" opacity=".8" stroke="#2ad5c8" stroke-width="2"/><rect x="650" y="432" width="90" height="8" fill="#fff"/><polygon points="305, 132 323,150 305,168 287,150" fill="#ff5d7d" stroke="#fff" stroke-width="3"/><polygon points="435, 207 453,225 435,243 417,225" fill="#ffd166" stroke="#fff" stroke-width="3"/><polygon points="565, 277 583,295 565,313 547,295" fill="#2ad5c8" stroke="#fff" stroke-width="3"/><polygon points="695, 337 713,355 695,373 677,355" fill="#7f5af0" stroke="#fff" stroke-width="3"/><g transform="translate(120 420) scale(1.1 1.1)"><circle cx="0" cy="-42" r="15" fill="#7a4a32" stroke="#13233a" stroke-width="5"/><path d="M-14 -27 Q0 -35 14 -27 L18 18 Q0 31 -18 18Z" fill="#d06cff" stroke="#13233a" stroke-width="5"/><path d="M-10 17 L-16 53 M10 17 L18 50" stroke="#13233a" stroke-width="11" stroke-linecap="round"/><path d="M-12 -15 L-32 8 M12 -15 L32 2" stroke="#7a4a32" stroke-width="9" stroke-linecap="round"/><path d="M-8 -48 Q0 -58 10 -49" stroke="#13233a" stroke-width="9" stroke-linecap="round"/></g><rect x="0" y="0" width="960" height="48" fill="#071825" opacity=".88"/><text x="24" y="31" fill="white" font-family="Arial" font-weight="700" font-size="20">SCORE 01840</text><text x="936" y="31" fill="#7ff7ed" font-family="Arial" font-weight="700" font-size="18" text-anchor="end">COMBO 24 · PERFECT</text></svg>