<svg xmlns="http://www.w3.org/2000/svg" width="800" height="450" viewBox="0 0 800 450">
<defs><linearGradient id="sky" x1="0" y1="0" x2="0" y2="1"><stop offset="0%" stop-color="#09172f"/><stop offset="100%" stop-color="#1c2952"/></linearGradient></defs>
<rect width="800" height="450" fill="url(#sky)"/>
<circle cx="530" cy="70" r="24" fill="#d5d8ef" opacity="0.8"/>
<g fill="#253457"><rect x="470" y="100" width="22" height="140"/><rect x="500" y="82" width="28" height="158"/><rect x="538" y="115" width="24" height="125"/><rect x="572" y="65" width="36" height="175"/><rect x="620" y="105" width="22" height="135"/><rect x="650" y="88" width="26" height="152"/></g>
<rect y="305" width="800" height="145" fill="#2d2935"/>
<rect x="0" y="285" width="800" height="20" fill="#1e1a25"/>
<g stroke="#c6a533" stroke-width="6"><line x1="0" y1="305" x2="800" y2="305" stroke-dasharray="20 16" opacity="0.75"/></g>
<rect x="45" y="150" width="115" height="155" fill="#4d2f25"/><rect x="60" y="206" width="52" height="82" fill="#2f1c15"/><text x="69" y="182" fill="#83b9db" font-size="26" font-family="Arial" font-weight="700">B7</text><text x="70" y="230" fill="#d7b893" font-size="14" font-family="Arial">SECURITY</text><text x="73" y="248" fill="#d7b893" font-size="14" font-family="Arial">LEVEL 3</text>
<rect x="168" y="208" width="165" height="72" fill="none" stroke="#7d8aa2" stroke-width="4"/><g stroke="#7d8aa2" stroke-width="3"><line x1="168" y1="208" x2="333" y2="280"/><line x1="168" y1="280" x2="333" y2="208"/><line x1="186" y1="208" x2="351" y2="280"/><line x1="150" y1="280" x2="315" y2="208"/></g>
<rect x="192" y="286" width="30" height="26" fill="#587d2c"/><rect x="226" y="286" width="30" height="26" fill="#5e8a32"/>
<rect x="375" y="188" width="205" height="117" fill="#7e412b"/><g stroke="#8a5a42"><line x1="405" y1="188" x2="405" y2="305"/><line x1="440" y1="188" x2="440" y2="305"/><line x1="475" y1="188" x2="475" y2="305"/><line x1="510" y1="188" x2="510" y2="305"/><line x1="545" y1="188" x2="545" y2="305"/></g><text x="408" y="262" fill="#b98952" font-size="48" font-family="Arial" font-weight="700" opacity="0.65">ZENITH</text><text x="420" y="297" fill="#b98952" font-size="36" font-family="Arial" font-weight="700" opacity="0.5">INDUSTRIES</text>
<rect x="505" y="225" width="44" height="44" fill="#bca235"/><text x="517" y="255" fill="#7a2a2a" font-size="25">⚡</text><text x="500" y="282" fill="#2d1809" font-size="20" font-family="Arial" font-weight="700">DANGER</text>
<g stroke="#a7b6ca" stroke-width="4"><line x1="586" y1="185" x2="586" y2="301"/><line x1="607" y1="185" x2="607" y2="301"/><line x1="586" y1="205" x2="607" y2="205"/><line x1="586" y1="225" x2="607" y2="225"/><line x1="586" y1="245" x2="607" y2="245"/><line x1="586" y1="265" x2="607" y2="265"/><line x1="586" y1="285" x2="607" y2="285"/></g>
<rect x="685" y="282" width="34" height="63" fill="#6d3721" stroke="#3a1b10" stroke-width="3"/>
<circle cx="86" cy="160" r="10" fill="#c7a447" opacity="0.85"/><circle cx="86" cy="160" r="25" fill="none" stroke="#c7a447" opacity="0.25"/>
<g transform="translate(220 252)"><circle cx="0" cy="-32" r="15" fill="#4f2d21"/><path d="M-18 -20 q18 -22 36 0" fill="#0d0d0d"/><rect x="-18" y="-16" width="36" height="56" rx="8" fill="#e8e8eb"/><rect x="-6" y="8" width="12" height="24" fill="#101318"/><rect x="-22" y="36" width="14" height="54" fill="#e8e8eb" transform="rotate(12 -22 36)"/><rect x="8" y="36" width="14" height="54" fill="#e8e8eb" transform="rotate(-18 8 36)"/><rect x="-38" y="0" width="12" height="50" fill="#4b2d23" transform="rotate(-28 -38 0)"/><rect x="26" y="0" width="12" height="50" fill="#4b2d23" transform="rotate(56 26 0)"/></g>
<g transform="translate(465 258)"><circle cx="0" cy="-28" r="14" fill="#7a4e33"/><rect x="-16" y="-14" width="32" height="52" rx="8" fill="#456d96"/><rect x="-8" y="-28" width="16" height="10" fill="#c74a2e"/><rect x="-22" y="38" width="12" height="50" fill="#3f2c25" transform="rotate(18 -22 38)"/><rect x="10" y="38" width="12" height="50" fill="#3f2c25" transform="rotate(-22 10 38)"/><rect x="-35" y="-2" width="10" height="42" fill="#7a4e33" transform="rotate(-35 -35 -2)"/><rect x="25" y="-2" width="10" height="42" fill="#7a4e33" transform="rotate(65 25 -2)"/><polygon points="-52,20 -22,8 -6,34 -36,42" fill="#f7c646" opacity="0.9"/></g>
<g transform="translate(665 258)"><circle cx="0" cy="-28" r="14" fill="#7a4e33"/><rect x="-18" y="-14" width="36" height="54" rx="8" fill="#3d6a8c"/><rect x="-10" y="-28" width="20" height="10" fill="#2d57a4"/><rect x="-22" y="40" width="12" height="50" fill="#4d622f" transform="rotate(12 -22 40)"/><rect x="10" y="40" width="12" height="50" fill="#4d622f" transform="rotate(-12 10 40)"/><rect x="-38" y="0" width="10" height="40" fill="#7a4e33" transform="rotate(-16 -38 0)"/><rect x="28" y="0" width="10" height="40" fill="#7a4e33" transform="rotate(16 28 0)"/></g>
</svg>
